# xmcd
#
# Track frame offsets:
#	180
#	12519
#	26926
#	40715
#	53359
#	67449
#	78381
#	92338
#	105355
#	117753
#	129841
#	143621
#	156898
#	169905
#	182943
#	193004
#	207600
#	219878
#	232598
#	247595
#
# Disc length: 3471 seconds
#
# Revision: 0
# Processed by: cddbd v1.4PL0 Copyright (c) Steve Scherf et al.
# Submitted via: EasyCDDAExtractor 4.5.0.2
#
DISCID=010d8d14
DTITLE=Varios - El Fonografo Del Recuerdo Vol. 2
DYEAR=1900
DGENRE=Rave
TTITLE0=Alfredo Gutiérrez - Cabaretera
TTITLE1=Fernando Fernández - Vagabundo
TTITLE2=Bienvenido Granda - La Canción Del Borracho
TTITLE3=Orlando Contreras - Amigo De Que
TTITLE4=Daniel Santos - Despedida
TTITLE5=Tito Cortéz - Derrumbes
TTITLE6=Carmen Delia Depini - Delirio
TTITLE7=Hector Lavoe - Consejo De Oro
TTITLE8=Virginia Lopez - Tus Promesas De Amor
TTITLE9=Celio González - Quemame Los Ojos
TTITLE10=Lucho Macedo - Sed De Oro
TTITLE11=Cristóbal Perez Noe Petro - La Descarada
TTITLE12=Willie Rodríguez ''El Baby'' - Burbujas
TTITLE13=Celio González - Una Docena De Besos
TTITLE14=Olimpo Cardenas - Cuatro Vidas
TTITLE15=Benny More - Encantado De La Vida
TTITLE16=La Sonora Maracaibo - Naela
TTITLE17=Daniel Santos - Linda
TTITLE18=Julio Jaramillo - Nuestro Juramento
TTITLE19=Tropicana México De Memo Lecuona - Todo Se Paga
EXTD=
EXTT0=
EXTT1=
EXTT2=
EXTT3=
EXTT4=
EXTT5=
EXTT6=
EXTT7=
EXTT8=
EXTT9=
EXTT10=
EXTT11=
EXTT12=
EXTT13=
EXTT14=
EXTT15=
EXTT16=
EXTT17=
EXTT18=
EXTT19=
PLAYORDER=
